# xmcd
#
# Track frame offsets:
#	225
#	24528
#	42836
#	76823
#	100139
#	128857
#	154621
#	175581
#	196432
#	216354
#
# Disc length: 3201 seconds
# Revision: 0
# Processed by: cddbd v1.5.2PL0 Copyright (c) Steve Scherf et al.
# Submitted via: dBpowerAMP V12.0
#
DISCID=7b0c7e0a
DTITLE=Francine Reed - Shades of Blue
DYEAR=1999
DGENRE=Blues
TTITLE0=The Man That Got Away
TTITLE1=I Gotta Right to Sing The Blues
TTITLE2=When Love Was New
TTITLE3=What do I do
TTITLE4=Beyond my Wildest Dreams
TTITLE5=I Have a Right to Know
TTITLE6=I'm a Handful
TTITLE7=Wrong Man For The Job
TTITLE8=A Touch of Love
TTITLE9=455 Rocket
EXTD=
EXTT0=
EXTT1=
EXTT2=
EXTT3=
EXTT4=
EXTT5=
EXTT6=
EXTT7=
EXTT8=
EXTT9=
PLAYORDER=
